<svg xmlns="http://www.w3.org/2000/svg" width="21.448" height="14.309" viewBox="0 0 21.448 14.309">
  <g id="contact" transform="translate(-6 -1)">
    <path id="Path_8" data-name="Path 8" d="M-517.571,223.713a1.15,1.15,0,0,1,.784-.851,1.738,1.738,0,0,1,.454-.058q9.488,0,18.975,0a1.123,1.123,0,0,1,1.234,1.235q0,5.918,0,11.835a1.123,1.123,0,0,1-1.234,1.235q-9.488,0-18.975,0a1.179,1.179,0,0,1-1.238-.912Zm20.6,11.948V224.17c-.079.056-.135.095-.19.136q-4.2,3.146-8.392,6.291a2.406,2.406,0,0,1-.514.317,1.937,1.937,0,0,1-2.012-.266l-8.458-6.343c-.058-.043-.118-.084-.19-.137v11.487c.074-.086.123-.142.17-.2l4.348-5.37a.973.973,0,0,1,.174-.179.381.381,0,0,1,.485,0,.391.391,0,0,1,.119.487,1.074,1.074,0,0,1-.141.207q-2.2,2.719-4.4,5.437c-.055.068-.107.139-.176.228h18.6c-.071-.091-.123-.162-.178-.23q-2.2-2.718-4.4-5.437a1.052,1.052,0,0,1-.14-.207.39.39,0,0,1,.121-.487.383.383,0,0,1,.485,0,.881.881,0,0,1,.161.163q1.707,2.107,3.412,4.215Zm-19.062-12.023c.065.056.094.084.127.108q4.178,3.134,8.358,6.267a1.129,1.129,0,0,0,1.431-.021l8.273-6.207c.052-.039.1-.083.176-.148Z" transform="translate(523.571 -221.802)" fill="#fff"/>
  </g>
</svg>
