<svg xmlns="http://www.w3.org/2000/svg" width="30.658" height="23.75" viewBox="0 0 30.658 23.75">
  <g id="free" transform="translate(407.433 28.012)">
    <path id="Path_12" data-name="Path 12" d="M-376.775-9.367a3.049,3.049,0,0,1-.564.4q-5.533,2.312-11.072,4.607a.994.994,0,0,1-.828.006q-5.534-2.308-11.074-4.6c-.517-.215-.565-.286-.565-.848,0-.638,0-1.276,0-1.95-.119-.006-.224-.015-.328-.015q-2.187,0-4.374,0a1.341,1.341,0,0,1-.355-.035.483.483,0,0,1-.379-.51.474.474,0,0,1,.375-.481,1.569,1.569,0,0,1,.384-.04q2.157,0,4.314,0h.343v-1.813h-1.649c-.13,0-.26.007-.389,0a.546.546,0,0,1-.545-.528.535.535,0,0,1,.568-.533c.389-.011.779,0,1.168,0h.849v-1.814h-.367c-1.787,0-3.575.005-5.362-.007a.983.983,0,0,1-.574-.175.748.748,0,0,1-.233-.5.438.438,0,0,1,.39-.43,1.715,1.715,0,0,1,.358-.021h5.87v-4.038c0-.553,0-.553.509-.757q5.52-2.224,11.038-4.453a1.118,1.118,0,0,1,.914,0q5.615,2.307,11.237,4.6a2.128,2.128,0,0,1,.342.223Zm-1.062-12.706c-.1.038-.16.055-.214.078q-5.01,2.088-10.023,4.17c-.215.089-.21.221-.209.393q0,5.782,0,11.564c0,.094.009.188.015.306.122-.046.215-.078.306-.115q4.929-2.049,9.86-4.093a.412.412,0,0,0,.3-.456q-.029-5.752-.04-11.5C-377.837-21.831-377.837-21.929-377.837-22.073ZM-389.374-5.561c.005-.092.012-.151.012-.21q0-5.858.007-11.716c0-.221-.1-.284-.268-.354q-4.946-2.05-9.889-4.106c-.088-.036-.18-.061-.285-.1V-18.6c.371,0,.721-.013,1.069,0a.515.515,0,0,1,.5.5.509.509,0,0,1-.434.526,1.9,1.9,0,0,1-.356.029c-.257,0-.513,0-.781,0v1.811h4.87c.445,0,.694.191.7.526s-.257.535-.689.542c-.07,0-.14,0-.21,0H-399.8v1.812h1.278c.31,0,.62-.012.928.009a.515.515,0,0,1,.5.5.513.513,0,0,1-.451.545,1.8,1.8,0,0,1-.328.018c-.638,0-1.276,0-1.954,0,0,.528.013,1.035-.006,1.541a.407.407,0,0,0,.3.458q4.921,2.034,9.832,4.089C-389.592-5.64-389.492-5.605-389.374-5.561Zm4.918-19.615c-.157-.068-.245-.108-.335-.144-1.258-.5-2.513-1.014-3.776-1.5a.747.747,0,0,0-.5,0q-3.973,1.577-7.937,3.178l-1.915.767c.094.049.144.079.2.1,1.379.576,2.758,1.154,4.142,1.718a.606.606,0,0,0,.418-.017c1.545-.644,3.085-1.3,4.627-1.952Zm5.761,2.312c-1.452-.585-2.828-1.144-4.209-1.687a.581.581,0,0,0-.392.04q-4.71,1.989-9.414,3.991c-.077.033-.151.075-.265.131.139.064.234.112.332.153,1.186.5,2.374.989,3.556,1.494a.657.657,0,0,0,.565,0q3.927-1.651,7.861-3.289C-380.03-22.3-379.4-22.566-378.7-22.864Z" transform="translate(0)" fill="#fff"/>
    <path id="Path_13" data-name="Path 13" d="M-139.191,191.243a.9.9,0,0,1-.859.9.95.95,0,0,1-.831-.91.918.918,0,0,1,.851-.915A.918.918,0,0,1-139.191,191.243Z" transform="translate(-244.339 -200.137)" fill="#fff"/>
    <path id="Path_14" data-name="Path 14" d="M-166.042,200.726a.919.919,0,0,1-.854.91.916.916,0,0,1-.835-.925.9.9,0,0,1,.832-.894A.931.931,0,0,1-166.042,200.726Z" transform="translate(-219.726 -208.845)" fill="#fff"/>
  </g>
</svg>
