<svg xmlns="http://www.w3.org/2000/svg" width="17.785" height="17.826" viewBox="0 0 17.785 17.826">
  <g id="login" transform="translate(-9.95 -7.3)">
    <path id="Path_2" data-name="Path 2" d="M688.178,572.064a8.981,8.981,0,0,0-4.2-6.609c-.422-.257-.745-.308-1,.112s.095.673.515.932a7.986,7.986,0,0,1,3.588,5.565c.051.456.023.989.472.989a.919.919,0,0,0,.1-.005C688.139,572.993,688.233,572.554,688.178,572.064Z" transform="translate(-660.457 -547.926)" fill="#fff"/>
    <path id="Path_3" data-name="Path 3" d="M24.209,12.648a5.348,5.348,0,1,0-10.4,1.764.89.89,0,0,0,1.134.548c.465-.163.163-.589,0-1.054a3.555,3.555,0,0,1-.2-1.178,3.985,3.985,0,0,1,4.114-4.1,4.115,4.115,0,0,1,4.219,4.019c0,1.967-2.252,3.566-4.219,3.566A8.9,8.9,0,0,0,10,24.139c-.054.489-.167.91.323.964a.917.917,0,0,0,.1.005c.449,0,.415-.512.466-.97.4-3.613,4.33-6.881,7.972-6.881C21.81,17.258,24.209,15.6,24.209,12.648Z" transform="translate(0)" fill="#fff"/>
  </g>
</svg>
