<svg id="Iconly_Light-outline_Search" data-name="Iconly/Light-outline/Search" xmlns="http://www.w3.org/2000/svg" width="15.034" height="15.044" viewBox="0 0 15.034 15.044">
  <g id="Search" transform="translate(0)">
    <path id="Search-2" data-name="Search" d="M14.052,14.963l-.063-.052-2.224-2.17-.132-.129A7.277,7.277,0,0,1,7.209,14.1,7.138,7.138,0,0,1,0,7.05,7.139,7.139,0,0,1,7.209,0a7.138,7.138,0,0,1,7.208,7.05,6.934,6.934,0,0,1-1.84,4.7L14.9,14.014a.61.61,0,0,1-.06.826.759.759,0,0,1-.508.2A.47.47,0,0,1,14.052,14.963ZM1.471,7.05a5.682,5.682,0,0,0,5.738,5.612A5.682,5.682,0,0,0,12.947,7.05,5.682,5.682,0,0,0,7.209,1.437,5.682,5.682,0,0,0,1.471,7.05Z"/>
  </g>
</svg>
